# xmcd CD database file
#
# Track frame offsets:
#	150
#	19307
#	40062
#	59225
#
# Disc length: 1063 seconds
#
# Revision: 0
# Processed by: cddbd v1.5PL3 Copyright (c) Steve Scherf et al.
# Submitted via: CDex 1.50beta10
#
DISCID=34042504
DTITLE=奥井雅美 - naked mind
DYEAR=1996
DGENRE=Anime
TTITLE0=naked mind
TTITLE1=虹のように
TTITLE2=naked mind(off vocal)
TTITLE3=虹のように (off vocal)
EXTD=YEAR: 1996/12/05
EXTT0=
EXTT1=
EXTT2=
EXTT3=
PLAYORDER=
